<?xml version="1.0" encoding="UTF-8" standalone="no"?>
<svg width="113px" height="58px" viewBox="0 0 113 58" version="1.1" xmlns="http://www.w3.org/2000/svg" xmlns:xlink="http://www.w3.org/1999/xlink" xmlns:sketch="http://www.bohemiancoding.com/sketch/ns">
    <!-- Generator: Sketch 3.3.2 (12043) - http://www.bohemiancoding.com/sketch -->
    <title>logo</title>
    <desc>Created with Sketch.</desc>
    <defs>
        <path id="path-1" d="M43.7305876,14.5900851 L29.2319453,29.0514184 L14.7333029,14.5900851 L29.2319453,0.128751773 L43.7305876,14.5900851"></path>
    </defs>
    <g id="Welcome" stroke="none" stroke-width="1" fill="none" fill-rule="evenodd" sketch:type="MSPage">
        <g id="Tablet-Portrait" sketch:type="MSArtboardGroup" transform="translate(-24.000000, -18.000000)">
            <g id="logo" sketch:type="MSLayerGroup" transform="translate(24.000000, 18.000000)">
                <path d="M61.9875109,42.9631915 L59.6578139,42.9631915 L59.6578139,42.4391348 C59.6578139,41.9080851 59.5324416,41.4486099 59.2808723,41.0611206 C59.0297153,40.6736312 58.6074088,40.4802979 58.0135401,40.4802979 C57.6939234,40.4802979 57.431219,40.5411773 57.2258394,40.6625248 C57.0200474,40.7842837 56.8604453,40.939773 56.746208,41.1294043 C56.6319708,41.3198582 56.5519635,41.5395177 56.5061861,41.7900284 C56.4608212,42.0409504 56.4377263,42.3025674 56.4377263,42.5761135 C56.4377263,42.8949078 56.4492737,43.1647518 56.4719562,43.3844113 C56.4950511,43.6048936 56.5519635,43.7945248 56.6431058,43.9541277 C56.7346606,44.1137305 56.8678686,44.254 57.0427299,44.3753475 C57.2175912,44.4971064 57.4576131,44.6184539 57.7623832,44.7398014 L59.5439891,45.4460851 C60.0611496,45.6435319 60.4801569,45.8755319 60.7997737,46.1408511 C61.1193905,46.4065816 61.3668358,46.7179716 61.5421095,47.0746099 C61.7169708,47.4316596 61.8349197,47.841773 61.8959562,48.3049504 C61.9565803,48.7681277 61.9875109,49.2958865 61.9875109,49.8878156 C61.9875109,50.5710638 61.9186387,51.2053617 61.781719,51.7898865 C61.6447993,52.3748227 61.4200365,52.875844 61.1082555,53.2933617 C60.7956496,53.7112908 60.3807664,54.0416028 59.8636058,54.2842979 C59.3456204,54.5269929 58.7138102,54.6487518 57.9681752,54.6487518 C57.4044124,54.6487518 56.8794161,54.549617 56.3923613,54.3525816 C55.9048942,54.1555461 55.4862993,53.8857021 55.1361642,53.5438723 C54.7856168,53.2020426 54.5080657,52.7960426 54.3026861,52.325461 C54.0968942,51.8544681 53.9942044,51.3456312 53.9942044,50.7993617 L53.9942044,49.9334752 L56.3234891,49.9334752 L56.3234891,50.662383 C56.3234891,51.0877163 56.4492737,51.4710922 56.7004307,51.812922 C56.9515876,52.1543404 57.3743066,52.325461 57.9681752,52.325461 C58.3636752,52.325461 58.6717445,52.2682837 58.8927956,52.1543404 C59.1134343,52.0403972 59.2808723,51.8812057 59.3955219,51.6759433 C59.5097591,51.4710922 59.5815182,51.2168794 59.6120365,50.9128936 C59.6425547,50.6093191 59.6578139,50.275305 59.6578139,49.9104397 C59.6578139,49.4859291 59.6425547,49.1362837 59.6120365,48.8627376 C59.5815182,48.5896028 59.5171825,48.3695319 59.4182044,48.2025248 C59.3188139,48.0355177 59.1818942,47.898539 59.0070328,47.7924113 C58.8317591,47.6862837 58.599573,47.5723404 58.3104745,47.4505816 L56.6431058,46.7673333 C55.6384781,46.3572199 54.9650146,45.8142411 54.6223029,45.1388085 C54.2800036,44.4629645 54.1084416,43.6164113 54.1084416,42.5987376 C54.1084416,41.9915887 54.1917482,41.4144681 54.3595985,40.8677872 C54.5270365,40.320695 54.7740693,39.8505248 55.1019343,39.4552199 C55.4293869,39.0603262 55.8442701,38.7456454 56.3465839,38.5099433 C56.8488978,38.2746525 57.4349307,38.1570071 58.1046825,38.1570071 C58.683292,38.1570071 59.2124124,38.2635461 59.6920438,38.4758014 C60.1716752,38.6888794 60.5828467,38.9694184 60.9255584,39.3186525 C61.2678577,39.6682979 61.530562,40.059078 61.7132591,40.4918156 C61.8959562,40.9245532 61.9875109,41.3688085 61.9875109,41.8241702 L61.9875109,42.9631915" id="Fill-1" fill="#343433" sketch:type="MSShapeGroup"></path>
                <path d="M63.722927,38.2935745 L65.9606569,38.2935745 L68.9522701,46.8808652 L68.9980474,46.8808652 L71.9673905,38.2935745 L74.2278029,38.2935745 L74.2278029,54.511773 L71.8985182,54.511773 L71.8985182,44.6488936 L71.8531533,44.6488936 L69.5461387,51.6191773 L68.3814964,51.6191773 L66.0979891,44.6488936 L66.0522117,44.6488936 L66.0522117,54.511773 L63.722927,54.511773 L63.722927,38.2935745" id="Fill-2" fill="#343433" sketch:type="MSShapeGroup"></path>
                <path d="M76.2832482,42.1203404 C76.2832482,41.4675319 76.3974854,40.8904113 76.6259599,40.3893901 C76.8540219,39.8879574 77.1546679,39.4745532 77.5278978,39.1475319 C77.9007153,38.8213333 78.3193102,38.5745248 78.7840949,38.4075177 C79.2484672,38.2405106 79.7165511,38.1570071 80.1883467,38.1570071 C80.6601423,38.1570071 81.1282263,38.2405106 81.5930109,38.4075177 C82.0569708,38.5745248 82.4759781,38.8213333 82.849208,39.1475319 C83.2220255,39.4745532 83.5226715,39.8879574 83.751146,40.3893901 C83.9796204,40.8904113 84.0934453,41.4675319 84.0934453,42.1203404 L84.0934453,50.6850071 C84.0934453,51.3534468 83.9796204,51.9342695 83.751146,52.4278865 C83.5226715,52.9215035 83.2220255,53.331617 82.849208,53.6578156 C82.4759781,53.9844255 82.0569708,54.231234 81.5930109,54.3982411 C81.1282263,54.5648369 80.6601423,54.6487518 80.1883467,54.6487518 C79.7165511,54.6487518 79.2484672,54.5648369 78.7840949,54.3982411 C78.3193102,54.231234 77.9007153,53.9844255 77.5278978,53.6578156 C77.1546679,53.331617 76.8540219,52.9215035 76.6259599,52.4278865 C76.3974854,51.9342695 76.2832482,51.3534468 76.2832482,50.6850071 L76.2832482,42.1203404 L76.2832482,42.1203404 Z M78.6125328,50.6850071 C78.6125328,51.2473191 78.7688358,51.6611348 79.0810292,51.9268652 C79.3928102,52.1925957 79.7619161,52.325461 80.1883467,52.325461 C80.614365,52.325461 80.9838832,52.1925957 81.2960766,51.9268652 C81.6078577,51.6611348 81.7641606,51.2473191 81.7641606,50.6850071 L81.7641606,42.1203404 C81.7641606,41.5584397 81.6078577,41.1446241 81.2960766,40.8788936 C80.9838832,40.6135745 80.614365,40.4802979 80.1883467,40.4802979 C79.7619161,40.4802979 79.3928102,40.6135745 79.0810292,40.8788936 C78.7688358,41.1446241 78.6125328,41.5584397 78.6125328,42.1203404 L78.6125328,50.6850071 L78.6125328,50.6850071 Z" id="Fill-3" fill="#343433" sketch:type="MSShapeGroup"></path>
                <path d="M86.0119708,42.1203404 C86.0119708,41.4675319 86.126208,40.8904113 86.3542701,40.3893901 C86.5827445,39.8879574 86.8833905,39.4745532 87.256208,39.1475319 C87.629438,38.8213333 88.0476204,38.5745248 88.5124051,38.4075177 C88.9767774,38.2405106 89.4448613,38.1570071 89.9170693,38.1570071 C90.388865,38.1570071 90.8569489,38.2405106 91.3213212,38.4075177 C91.7856934,38.5745248 92.2042883,38.8213333 92.5775182,39.1475319 C92.9503358,39.4745532 93.2513942,39.8879574 93.4794562,40.3893901 C93.7079307,40.8904113 93.8221679,41.4675319 93.8221679,42.1203404 L93.8221679,50.6850071 C93.8221679,51.3534468 93.7079307,51.9342695 93.4794562,52.4278865 C93.2513942,52.9215035 92.9503358,53.331617 92.5775182,53.6578156 C92.2042883,53.9844255 91.7856934,54.231234 91.3213212,54.3982411 C90.8569489,54.5648369 90.388865,54.6487518 89.9170693,54.6487518 C89.4448613,54.6487518 88.9767774,54.5648369 88.5124051,54.3982411 C88.0476204,54.231234 87.629438,53.9844255 87.256208,53.6578156 C86.8833905,53.331617 86.5827445,52.9215035 86.3542701,52.4278865 C86.126208,51.9342695 86.0119708,51.3534468 86.0119708,50.6850071 L86.0119708,42.1203404 L86.0119708,42.1203404 Z M88.3412555,50.6850071 C88.3412555,51.2473191 88.497146,51.6611348 88.8093394,51.9268652 C89.1211204,52.1925957 89.4902263,52.325461 89.9170693,52.325461 C90.3430876,52.325461 90.7121934,52.1925957 91.0243869,51.9268652 C91.3365803,51.6611348 91.4924708,51.2473191 91.4924708,50.6850071 L91.4924708,42.1203404 C91.4924708,41.5584397 91.3365803,41.1446241 91.0243869,40.8788936 C90.7121934,40.6135745 90.3430876,40.4802979 89.9170693,40.4802979 C89.4902263,40.4802979 89.1211204,40.6135745 88.8093394,40.8788936 C88.497146,41.1446241 88.3412555,41.5584397 88.3412555,42.1203404 L88.3412555,50.6850071 L88.3412555,50.6850071 Z" id="Fill-4" fill="#343433" sketch:type="MSShapeGroup"></path>
                <path d="M103.277051,50.8902695 C103.277051,51.3912908 103.181785,51.8696879 102.991252,52.325461 C102.801131,52.7808227 102.538015,53.1794184 102.203551,53.5208369 C101.868263,53.863078 101.476062,54.1362128 101.027361,54.3410638 C100.578248,54.5459149 100.094493,54.6487518 99.5773321,54.6487518 C99.1356423,54.6487518 98.6865292,54.5878723 98.2295803,54.4665248 C97.7730438,54.3451773 97.3618723,54.1362128 96.9968905,53.8400426 C96.6310839,53.5438723 96.330438,53.1530922 96.0945401,52.6668794 C95.8582299,52.181078 95.7406934,51.5661135 95.7406934,50.8219858 L95.7406934,41.8924539 C95.7406934,41.3614043 95.8318358,40.8677872 96.0145328,40.4120142 C96.1972299,39.9566525 96.4562226,39.5617589 96.7910985,39.2273333 C97.125562,38.8937305 97.5255985,38.6317021 97.9899708,38.4416596 C98.4543431,38.2520284 98.9682044,38.1570071 99.5315547,38.1570071 C100.064387,38.1570071 100.559277,38.2520284 101.016226,38.4416596 C101.472763,38.6317021 101.868263,38.8974326 102.203551,39.2388511 C102.538015,39.5806809 102.801131,39.9907943 102.991252,40.4691915 C103.181785,40.9471773 103.277051,41.4675319 103.277051,42.0294326 L103.277051,42.9405674 L100.947354,42.9405674 L100.947354,42.166 C100.947354,41.710227 100.817858,41.3157447 100.559277,40.9817305 C100.300285,40.6477163 99.9501496,40.4802979 99.5084599,40.4802979 C98.9298504,40.4802979 98.5458978,40.6588227 98.355365,41.0158723 C98.1648321,41.3725106 98.0699781,41.8241702 98.0699781,42.3708511 L98.0699781,50.662383 C98.0699781,51.1333759 98.1726679,51.5278582 98.3784599,51.8470638 C98.5838394,52.1658582 98.9525328,52.325461 99.4857774,52.325461 C99.6379562,52.325461 99.8016825,52.2987234 99.9769562,52.2456596 C100.151818,52.1925957 100.31142,52.1053901 100.456588,51.9836312 C100.600931,51.8622837 100.71888,51.6952766 100.810434,51.4821986 C100.901989,51.2699433 100.947354,51.0038014 100.947354,50.6850071 L100.947354,49.8878156 L103.277051,49.8878156 L103.277051,50.8902695" id="Fill-5" fill="#343433" sketch:type="MSShapeGroup"></path>
                <path d="M105.172482,38.2935745 L107.501766,38.2935745 L107.501766,45.2408227 L110.379555,45.2408227 L110.379555,38.2935745 L112.708839,38.2935745 L112.708839,54.511773 L110.379555,54.511773 L110.379555,47.2909787 L107.501766,47.2909787 L107.501766,54.511773 L105.172482,54.511773 L105.172482,38.2935745" id="Fill-6" fill="#343433" sketch:type="MSShapeGroup"></path>
                <path d="M43.7305876,43.5127518 L29.2319453,57.9744965 L0.234660584,29.0514184 L14.7333029,14.5900851 L43.7305876,43.5127518" id="Fill-7" fill="#E15A46" sketch:type="MSShapeGroup"></path>
                <path d="M29.2319453,57.9744965 L14.7333029,43.5127518 L43.7305876,14.5900851 L58.2292299,29.0514184 L29.2319453,57.9744965" id="Fill-8" fill="#DD4537" sketch:type="MSShapeGroup"></path>
                <path d="M43.7305876,43.5127518 L29.2319453,57.9744965 L14.7333029,43.5127518 L29.2319453,29.0514184 L43.7305876,43.5127518" id="Fill-9" fill="#DC3C49" sketch:type="MSShapeGroup"></path>
                <g id="Fill-10">
                    <use fill="#F3F3F3" sketch:type="MSShapeGroup" xlink:href="#path-1"></use>
                    <use fill="#FFFFFF" xlink:href="#path-1"></use>
                </g>
            </g>
        </g>
    </g>
</svg>